X-Men 3 The Last Stand (2006) 1080p       

 
  Verenigde Staten
Actie / Science-Fiction
104 minuten

geregisseerd door Brett Ratner
met Hugh Jackman, Ian McKellen en Famke Janssen

Via de mutant Jimmy heeft men een 'geneesmiddel' voor mutatie uitgevonden.
Voor het eerst in hun leven hebben mutanten nu een keus: hun krachten, 
waardoor ze niet geaccepteerd worden door de samenleving, behouden of hun krachten opgeven zodat ze menselijk worden.
Ondertussen probeert Magneto een leger mutanten bij elkaar te krijgen om het geneesmiddel te vernietigen en ontdekken Charles Xavier en zijn mutanten dat Jean Grey terug is. 
Maar ze is niet helemaal zichzelf.

 
http://www.moviemeter.nl/film/30897

English

Storyline
It has been several months since The X-Men stopped William Stryker, but that victory came at a price, they have lost Jean Gray when she tried to save them from the collapsed reservoir. Scott Summers (Cyclops) is still grieving about her loss. One day, he came out to the place which is where Jean Gray sacrificed herself. Then, Jean Gray appeared right in front of him. Though, it seemed that after that, Scott had disappeared. Meanwhille, the rift between humans and mutants had finally reached the boiling point. When humans discovered what causes humans to mutate, they have found a cure for the mutation. The X-Men were appalled at this idea. It was not long at all until the news about the cure came to Magneto. He decides to organize an army of mutants and wage his war against the humans. Then, it became clear that Jean Gray evolved into the Pheonix, her new mutant powers are so strong that she can not control her own body... 
 
http://www.imdb.com/title/tt0376994/

Spotinformatie 
Categorie : Beeld 
Formaat : HD Overig 
Bron : Retail
 
Ondertitels : Nederlands (instelbaar)

Format                           : Matroska
File size                        : 7.93 GiB
Duration                         : 1h 44mn
Overall bit rate                 : 10.9 Mbps
Encoded date                     : UTC 2009-05-02 07:35:14
Writing application              : mkvmerge v2.3.0 ('Freak U') built on Sep  8 2008 18:32:16
Writing library                  : libebml v0.7.7 + libmatroska v0.8.1

Video
ID                               : 1
Format                           : AVC
Format/Info                      : Advanced Video Codec
Format profile                   : High@L4.1
Format settings, CABAC           : Yes
Format settings, ReFrames        : 5 frames
Muxing mode                      : Container profile=Unknown@4.1
Codec ID                         : V_MPEG4/ISO/AVC
Duration                         : 1h 44mn
Bit rate                         : 9 415 Kbps
Width                            : 1 920 pixels
Height                           : 800 pixels
Display aspect ratio             : 2.40:1
Frame rate                       : 23.976 fps
Color space                      : YUV
Chroma subsampling               : 4:2:0
Bit depth                        : 8 bits
Scan type                        : Progressive
Bits/(Pixel*Frame)               : 0.256
Stream size                      : 6.67 GiB (84%)
Writing library                  : x264 core 67 r1145M d2e1e1c
Encoding settings                : cabac=1 / ref=5 / deblock=1:-3:-2 / analyse=0x3:0x113 / me=umh / subme=7 / psy_rd=1.1:0.0 / mixed_ref=1 / me_range=16 / chroma_me=1 / trellis=2 / 8x8dct=1 / cqm=0 / deadzone=21,11 / chroma_qp_offset=-4 / threads=3 / nr=0 / decimate=1 / mbaff=0 / bframes=3 / b_pyramid=1 / b_adapt=2 / b_bias=0 / direct=3 / wpredb=1 / keyint=250 / keyint_min=25 / scenecut=40 / rc=2pass / bitrate=9415 / ratetol=1.0 / qcomp=0.60 / qpmin=10 / qpmax=51 / qpstep=4 / cplxblur=20.0 / qblur=0.5 / vbv_maxrate=40000 / vbv_bufsize=40000 / ip_ratio=1.40 / pb_ratio=1.30 / aq=1:0.90 / zones=142692,148612,q=30

Audio
ID                               : 2
Format                           : DTS
Format/Info                      : Digital Theater Systems
Format profile                   : ES
Codec ID                         : A_DTS
Duration                         : 1h 44mn
Bit rate mode                    : Constant
Bit rate                         : 1 510 Kbps
Channel(s)                       : 7 channels
Channel positions                : Front: L C R, Side: L R, Back: C, LFE
Sampling rate                    : 48.0 KHz
Bit depth                        : 24 bits
Stream size                      : 1.10 GiB (14%)
Language                         : English

Text
ID                               : 3
Format                           : UTF-8
Codec ID                         : S_TEXT/UTF8
Codec ID/Info                    : UTF-8 Plain Text
Language                         : Dutch


 
Genre : Actie
Science Fiction
Thanks : Jet_Li  

Weblink :  http://www.moviemeter.nl/film/30897
Weblink :  http://www.imdb.com/title/tt0376994/

TBS

Black-Sam
